<?xml version="1.0" standalone="no"?><!DOCTYPE svg PUBLIC "-//W3C//DTD SVG 1.1//EN" "http://www.w3.org/Graphics/SVG/1.1/DTD/svg11.dtd"><svg t="1545803631326" class="icon" style="" viewBox="0 0 1024 1024" version="1.1" xmlns="http://www.w3.org/2000/svg" p-id="1418" xmlns:xlink="http://www.w3.org/1999/xlink" width="128" height="128"><defs><style type="text/css"></style></defs><path d="M593.91453797 758.01174661h116.77178818v25.87480496h-116.77178818z" p-id="1419"></path><path d="M824.10645566 410.51177537V-10.85875305h-78.02661391v421.37052842H277.92015825V-10.85875305h-78.02661391v421.37052842H-34.32036373V1034.85875305h1092.50666113V410.51177537zM500.47029417 659.47298163H317.87192963v152.03123741L243.86730612 827.18998165v-56.84413111l13.40663471-4.0219904V617.91241407h90.89698322l-3.08352597-14.74729817h76.82001678l2.81539329 14.74729817h75.21122064z m272.69094966 161.6840144H532.78028378v-100.54976021h240.38096005z m8.98244525-108.05747565H523.52970583v-39.14737329h102.42668906v-18.90335492h-37.13637809l-4.82638849 14.21103279H525.40663469V629.97838528h14.61323182l9.25057794-23.05941166H605.84644284l-3.88792405 11.12750681h23.9978761v-13.40663471h64.75404557v13.40663471h82.18267068v36.86824542h-82.18267068v19.03742124h91.43324862z" p-id="1420"></path></svg>