<?xml version="1.0" standalone="no"?><!DOCTYPE svg PUBLIC "-//W3C//DTD SVG 1.1//EN" "http://www.w3.org/Graphics/SVG/1.1/DTD/svg11.dtd"><svg t="1590553531688" class="icon" viewBox="0 0 1041 1024" version="1.1" xmlns="http://www.w3.org/2000/svg" p-id="25286" xmlns:xlink="http://www.w3.org/1999/xlink" width="128" height="128"><defs><style type="text/css"></style></defs><path d="M 347.465 0 H 94.8148 A 94.9096 94.9096 0 0 0 0 94.8148 v 252.65 a 94.9096 94.9096 0 0 0 94.8148 94.8148 h 252.65 a 94.9096 94.9096 0 0 0 94.8148 -94.8148 V 94.8148 a 94.9096 94.9096 0 0 0 -94.8148 -94.8148 Z M 347.465 581.721 H 94.8148 a 94.9096 94.9096 0 0 0 -94.8148 94.8148 V 929.185 a 94.9096 94.9096 0 0 0 94.8148 94.8148 h 252.65 a 94.9096 94.9096 0 0 0 94.8148 -94.8148 V 676.535 a 94.9096 94.9096 0 0 0 -94.8148 -94.8148 Z M 1002.78 605.235 a 23.7037 23.7037 0 0 0 -23.7037 23.7037 v 363.457 a 23.7037 23.7037 0 0 0 47.4074 0 V 628.938 a 23.7037 23.7037 0 0 0 -23.7037 -23.7037 Z M 820.701 702.357 a 23.7037 23.7037 0 0 0 -23.7037 23.7037 V 992.395 a 23.7037 23.7037 0 1 0 47.4074 0 V 726.06 a 23.7037 23.7037 0 0 0 -23.7037 -23.7037 Z M 638.625 630.013 a 23.7037 23.7037 0 0 0 -23.7037 23.7037 V 992.395 a 23.7037 23.7037 0 1 0 47.4074 0 V 653.717 a 23.7037 23.7037 0 0 0 -23.7037 -23.7037 Z M 947.026 0 H 694.376 a 94.9096 94.9096 0 0 0 -94.8148 94.8148 v 252.65 a 94.9096 94.9096 0 0 0 94.8148 94.8148 h 252.65 a 94.9096 94.9096 0 0 0 94.8148 -94.8148 V 94.8148 a 94.9096 94.9096 0 0 0 -94.8148 -94.8148 Z" p-id="25287"></path></svg>