<?xml version="1.0" standalone="no"?><!DOCTYPE svg PUBLIC "-//W3C//DTD SVG 1.1//EN" "http://www.w3.org/Graphics/SVG/1.1/DTD/svg11.dtd"><svg t="1545801528852" class="icon" style="" viewBox="0 0 1024 1024" version="1.1" xmlns="http://www.w3.org/2000/svg" p-id="1011" xmlns:xlink="http://www.w3.org/1999/xlink" width="128" height="128"><defs><style type="text/css"></style></defs><path d="M988.50133333 414.83377778L585.50044445 39.02577778c-20.36622222-23.21066667-49.83466667-36.52266667-81.00977778-36.63644445-30.72 0-60.07466667 13.19822222-79.64444445 35.15733334L36.63644445 414.49244445c-19.34222222 19.79733333-24.91733333 48.58311111-14.22222223 74.1831111 10.69511111 25.48622222 35.61244445 41.52888889 63.26044445 41.5288889H120.60444445v383.20355555c0 59.50577778 47.55911111 107.74755555 106.9511111 107.74755555h166.68444445c21.61777778 0 40.84622222-17.408 40.84622222-39.02577777v-254.86222223c0-10.80888889 7.168-20.48 17.97688889-20.48h117.64622222c10.80888889 0 19.11466667 9.67111111 19.11466667 20.48v254.86222223c0 21.61777778 18.09066667 39.02577778 39.70844445 39.02577777h166.68444444c59.50577778 0 108.08888889-48.24177778 108.08888889-107.74755555V530.31822222h34.816c27.648 0 52.45155555-15.92888889 63.14666667-41.41511111 10.92266667-25.48622222 5.46133333-54.272-13.76711112-74.06933333z" p-id="1012"></path></svg>