<?xml version="1.0" standalone="no"?><!DOCTYPE svg PUBLIC "-//W3C//DTD SVG 1.1//EN" "http://www.w3.org/Graphics/SVG/1.1/DTD/svg11.dtd"><svg t="1546482899169" class="icon" style="" viewBox="0 0 1024 1024" version="1.1" xmlns="http://www.w3.org/2000/svg" p-id="763" xmlns:xlink="http://www.w3.org/1999/xlink" width="200" height="200"><defs><style type="text/css"></style></defs><path d="M505.17333333 946.85866667a37.54666667 37.43288889 0 1 0 75.09333334 0 37.54666667 37.43288889 0 1 0-75.09333334 0Z" fill="#8a8a8a" p-id="764"></path><path d="M912.49777778 371.712v-5.00622222c0-80.44088889-65.19466667-145.63555555-145.63555556-145.63555556H511.77244445l-93.86666667-126.17955555c-8.41955555-14.67733333-20.48-18.432-31.06133333-18.20444445l-0.11377778-0.11377777H148.02488889c-80.44088889 0-145.63555555 65.19466667-145.63555556 145.63555555v616.78933333c0 80.44088889 65.19466667 145.63555555 145.63555556 145.63555556H392.53333333v-0.45511111c20.70755555 0 37.54666667-16.72533333 37.54666667-37.43288889s-16.83911111-37.43288889-37.54666667-37.43288889c-1.13777778 0-2.38933333 0.11377778-3.52711111 0.11377778h-205.93777777c-40.16355555 0-72.81777778-32.65422222-72.81777778-72.81777778 0-6.25777778 0.79644445-12.40177778 2.27555555-18.20444445L195.69777778 497.09511111l0.22755555-0.11377778c7.62311111-31.97155555 36.29511111-55.75111111 70.656-55.86488888l0.22755556-0.11377778h605.52533333c1.47911111-0.11377778 2.84444445-0.11377778 4.32355556-0.11377778 40.16355555 0 72.81777778 32.65422222 72.81777777 72.81777778 0 7.62311111-1.25155555 15.13244445-3.41333333 22.07288888v0.11377778L863.57333333 854.24355555c-0.11377778 0.68266667-0.34133333 1.25155555-0.45511111 1.93422223l-1.70666667 6.59911111-0.56888888 0.45511111c-1.70666667 4.43733333-3.86844445 8.53333333-6.25777778 12.51555555h-1.47911111c-2.95822222 5.34755555-6.59911111 10.35377778-10.80888889 14.67733334-12.97066667 12.06044445-30.37866667 19.456-49.37955556 19.456-1.47911111 0-2.95822222 0-4.32355555-0.11377778h-91.93244445c-1.13777778-0.11377778-2.38933333-0.11377778-3.52711111-0.11377778-20.70755555 0-37.54666667 16.72533333-37.54666667 37.43288889s16.83911111 37.43288889 37.54666667 37.43288889v0.22755556H797.58222222l0.56888889-0.45511112c67.24266667-0.22755555 123.67644445-45.96622222 140.17422222-108.08888888l0.22755556-0.22755556 77.14133333-324.83555556c3.29955555-12.288 5.12-25.14488889 5.12-38.45688888-0.11377778-67.69777778-46.08-124.58666667-108.31644444-140.97066667z m-650.24-5.57511111c-70.54222222 0-129.36533333 50.28977778-142.79111111 116.84977778l-0.56888889 0.45511111-43.23555556 182.38577777V221.86666667c0-40.16355555 32.65422222-72.81777778 72.81777778-72.81777778H365.22666667l94.09422222 126.63466666c7.50933333 12.97066667 21.84533333 19.56977778 35.84 17.9768889h271.36c40.04977778 0 72.59022222 32.42666667 72.81777778 72.47644444H262.25777778z" fill="#8a8a8a" p-id="765"></path></svg>