<?xml version="1.0" standalone="no"?><!DOCTYPE svg PUBLIC "-//W3C//DTD SVG 1.1//EN" "http://www.w3.org/Graphics/SVG/1.1/DTD/svg11.dtd"><svg t="1545986822761" class="icon" style="" viewBox="0 0 1024 1024" version="1.1" xmlns="http://www.w3.org/2000/svg" p-id="669" xmlns:xlink="http://www.w3.org/1999/xlink" width="200" height="200"><defs><style type="text/css"></style></defs><path d="M340.42086226 822.25007821c12.80453654 0 24.92970021 2.35709569 36.38377404 7.07542798a96.26807925 96.26807925 0 0 1 30.31498023 19.70183646c8.76143502 8.4258907 15.49717655 18.36380251 20.21136672 29.80959208 4.71833349 11.45821715 7.07542798 23.58752293 7.07542798 36.38791738 0 12.79625231-2.35709569 24.92970021-7.07542798 36.37548979-4.71833349 11.45821715-11.45407503 21.39198563-20.21136672 29.80959209-8.75729291 8.41760526-18.86504733 15.16163223-30.31498023 20.21136672-11.45407503 5.05801994-23.57923749 7.57667399-36.38377404 7.57667401-13.47148307 0-25.76648935-2.51865407-36.88502007-7.57667401a105.90358733 105.90358733 0 0 1-29.80959209-20.21136672c-8.76143502-8.41760526-15.49717655-18.35551707-20.21136672-29.80959209-4.71833349-11.4499317-7.07542798-23.57923749-7.07542919-36.37548979 0-12.80039443 2.35709569-24.93384234 7.07542919-36.38791738a86.67399722 86.67399722 0 0 1 20.21136672-29.80959208 97.96237175 97.96237175 0 0 1 29.80959209-19.70183646c11.11853071-4.71833349 23.41353699-7.07542798 36.88502007-7.07542798z m420.39975025 2.02569349c12.80039443 0 25.09540071 2.35295235 36.88087674 7.05885828 11.78961935 4.72247562 21.89323165 11.29251666 30.31498023 19.71012191 8.42174859 8.4258907 15.15749012 18.36794463 20.21550885 29.81373421 5.05387781 11.45821715 7.57667399 23.57095325 7.57667399 36.37134647 0 12.81696412-2.52279618 24.93384234-7.57667399 36.38791737-5.05801994 11.4499317-11.79376147 21.39198563-20.21550885 29.81787755-8.42174859 8.41346314-18.52950301 15.15334678-30.31498023 20.21136672-11.78961935 5.04973449-24.08048352 7.57667399-36.88087674 7.57667399s-24.93384234-2.5269383-36.38377525-7.57667399c-11.45407503-5.05801994-21.39198563-11.79790358-29.80959209-20.21136672-8.41760526-8.4258907-15.15749012-18.37208675-20.21136672-29.81787755-5.05387781-11.45821715-7.57667399-23.57095325-7.576674-36.38791737 0-12.80039443 2.52279618-24.91727265 7.576674-36.37134647 5.05387781-11.4499317 11.79376147-21.38784351 20.21136672-29.81373421 8.41760526-8.41760526 18.35965918-14.98764629 29.80959209-19.71012191 11.45407503-4.70590593 23.58752293-7.05885829 36.38377525-7.05885828z m169.77299836-632.01222596c18.87333277 0 33.52129141 2.5269383 43.96044803 7.58081613 10.44329874 5.05387781 17.85841437 11.28837332 22.23706021 18.69934682 4.37450373 7.4109723 6.40019722 15.32733273 6.06051078 23.74908132-0.33140221 8.4258907-1.51616322 15.66287705-3.53771459 21.72752994s-71.7526321 293.48943189-75.79573361 306.28982632c-8.75729291 26.94710826-19.8758224 45.65059721-33.3514476 56.08561171-13.47148307 10.44329874-29.9794347 15.66287705-49.519714 15.66287706H314.24426196l15.15749013 57.80890146h505.18475722c32.34067251 0 49.27116266 13.83188253 48.50893892 41.42936762-0.68351621 24.7764273-28.63311531 37.09628871-47.50230596 37.0962887H306.06278049c-13.47148307 0-24.75571427-3.02818433-33.85269361-9.10112267-9.09283723-6.06051077-16.67365334-13.97687122-22.73830624-23.74079586a144.26748791 144.26748791 0 0 1-14.65210197-31.83528559c-3.70755721-11.45407503-6.56589771-22.22463264-8.5915912-32.33238706-0.67108864-4.05138698-2.5269383-13.81945495-5.55512264-29.31248939-3.03232645-15.49303444-6.73988366-34.86346869-11.11853071-58.10716308l-14.65210197-77.81314165a43520.84395805 43520.84395805 0 0 1-16.17240732-86.40473407c-12.80039443-68.04507367-31.42517586-210.11702428-47.59344104-293.65927451H55.34075017c-10.1036123 0-18.52950301-2.5269383-25.26524454-7.58081611a65.99038293 65.99038293 0 0 1-16.67779546-18.18981657c-5.66697074-9.1632593-4.80532647-8.64958691-6.0107993-14.44497544-1.68186371-8.08206094-1.46645296-7.21627455-1.46645295-13.96030154 0-13.47148307 4.54848967-16.30496844 13.64132569-25.06226013s21.38784351-13.13593875 36.88502005-13.13593875h102.06761112c13.47562518 0 24.25446946 2.01740803 32.34067372 6.06050957 8.08206094 4.04724485 14.48640148 9.09697934 19.20059165 15.15749011 4.71419017 6.0646529 8.08620427 12.46485011 10.10775442 19.20473377 2.01740803 6.73574154 3.70755721 12.46485011 5.05387782 17.17489816 1.34631939 5.39356426 2.69264001 12.97438037 4.04310153 22.73830624 1.35046273 9.76806798 2.69678213 19.70597979 4.04310153 29.8137342 2.02155137 12.12102034 4.04310153 24.92141477 6.06051077 38.39704118h691.22958465z" fill="#888888" p-id="670"></path></svg>