<?xml version="1.0" standalone="no"?><!DOCTYPE svg PUBLIC "-//W3C//DTD SVG 1.1//EN" "http://www.w3.org/Graphics/SVG/1.1/DTD/svg11.dtd"><svg t="1545987075956" class="icon" style="" viewBox="0 0 1024 1024" version="1.1" xmlns="http://www.w3.org/2000/svg" p-id="710" xmlns:xlink="http://www.w3.org/1999/xlink" width="200" height="200"><defs><style type="text/css"></style></defs><path d="M634.41153897 897.875968c-40.38959408 0-82.02194489-6.2137837-119.30464712-18.01997275-88.23572859-27.3406483-147.88805215-80.15780978-183.30661926-119.3046471l37.28270223-32.93305363c30.44754015 34.79718875 83.26470163 80.77918815 160.31561955 105.01294459 32.93305363 10.5634323 68.97299911 15.53445925 104.39156622 15.53445926 91.96399882 0 165.28664652-36.03994548 210.64726756-66.48748562l27.3406483 41.6323508c-50.331648 34.17581037-132.97497125 74.56540445-237.36653748 74.56540445z" fill="#8a8a8a" p-id="711"></path><path d="M515.10689185 991.08272355c-111.84810667 0-220.58932148-39.14683733-306.3395366-109.98397155l-4.34964858-3.72827022 31.06891851-38.52545896 4.3496486 3.72827021c77.05091792 64.00197215 174.60732208 98.79916089 274.6492397 98.79916089 229.28861867 0 430.61521067-201.326592 430.61521067-430.61521067 0-237.36653748-193.24867318-430.61521067-430.61521067-430.61521066S84.49168118 273.39070578 84.49168118 510.75724325c0 18.64135111 1.24275675 37.90408059 3.72827023 56.54543172l-49.08889126 6.2137837c-2.48551348-20.50548622-4.34964859-41.63235082-4.3496486-62.75921542 0-264.70718578 215.61829452-480.3254803 480.3254803-480.32548028s480.3254803 215.61829452 480.3254803 480.32548028c0 126.76118755-52.19578311 247.30859141-146.6452954 339.8939686-90.72124208 89.47848533-212.51140267 140.4315117-333.6801849 140.4315117z" fill="#8a8a8a" p-id="712"></path><path d="M495.222784 287.6824083c-106.8770797 0-206.29761897-52.81716148-266.57132089-141.67426845l41.01097244-27.96202667c50.95302637 75.18678282 134.83910637 119.92602548 224.93897008 119.92602549 95.07089067 0 181.44248415-48.46751289 231.15275378-128.62532267l42.25372918 26.09789155c-58.40956682 95.07089067-160.31561955 152.23770075-272.78510459 152.23770075zM68.03758194 446.3762303l0.14913081-49.71026963 880.49315081 2.7092097-0.14913081 49.71026963z" fill="#8a8a8a" p-id="713"></path><path d="M805.29059082 735.07483497l-48.4675129-11.18481067c12.42756741-54.05991822 18.64135111-111.2267283 18.64135111-169.63629512 0-126.76118755-29.20478341-245.4444563-82.64332325-334.30156326-50.95302637-85.12883675-116.81913363-131.73221452-185.79213275-131.73221451-140.4315117 0-258.49340208 190.7631597-267.81407762 434.34348089l-49.71026963-1.86413512c4.97102697-128.62532267 39.14683733-247.92996978 95.69226904-337.4084551 59.03094518-93.20675555 137.94599822-144.7811603 221.83207821-144.7811603 87.61435022 0 168.39353837 55.30267497 228.6672403 155.96597097 57.78818845 96.31364741 89.47848533 224.3175917 89.47848534 359.77807643 0 62.75921541-6.83516208 123.03291733-19.88410785 180.82110579z" fill="#8a8a8a" p-id="714"></path><path d="M470.36764918 80.14203259h49.71026964v479.70410193h-49.71026964zM98.7833837 1024.63715555L79.52065422 623.84810667l421.29453511 16.15583763-148.50943051 142.29564681-34.17581037-36.03994548 64.00197214-61.51645866-249.79410489-9.32067556 11.18481067 237.98791584 85.12883674-81.4005665 34.17581037 35.4185671z" fill="#8a8a8a" p-id="715"></path></svg>